<svg width="130" height="150" viewBox="0 0 130 150" fill="none" xmlns="http://www.w3.org/2000/svg">
<path d="M21.6667 60V45C21.6667 33.0653 26.2321 21.6193 34.3587 13.1802C42.4853 4.74106 53.5073 0 65 0C76.4927 0 87.5147 4.74106 95.6413 13.1802C103.768 21.6193 108.333 33.0653 108.333 45H86.6667V60H115.556C119.386 60 123.06 61.5804 125.769 64.3934C128.478 67.2065 130 71.0218 130 75V135C130 138.978 128.478 142.794 125.769 145.607C123.06 148.42 119.386 150 115.556 150H14.4444C10.6135 150 6.93954 148.42 4.23068 145.607C1.52182 142.794 0 138.978 0 135V75C0 66.75 6.5 60 14.4444 60H21.6667ZM57.7778 110.475V127.5H72.2222V110.475C74.9759 108.824 77.1281 106.276 78.3449 103.225C79.5618 100.174 79.7752 96.7918 78.9523 93.6023C78.1293 90.4128 76.3159 87.5945 73.7932 85.5843C71.2706 83.5742 68.1797 82.4846 65 82.4846C61.8203 82.4846 58.7294 83.5742 56.2068 85.5843C53.6841 87.5945 51.8707 90.4128 51.0477 93.6023C50.2248 96.7918 50.4382 100.174 51.6551 103.225C52.8719 106.276 55.0241 108.824 57.7778 110.475ZM43.3333 45V60H86.6667V45C86.6667 39.0326 84.3839 33.3097 80.3207 29.0901C76.2574 24.8705 70.7464 22.5 65 22.5C59.2536 22.5 53.7426 24.8705 49.6794 29.0901C45.6161 33.3097 43.3333 39.0326 43.3333 45Z" fill="white"/>
</svg>
